<svg xmlns="http://www.w3.org/2000/svg" viewBox="0 0 48 48"><g data-name="Layer 2"><path fill="none" stroke="#000" stroke-linecap="round" stroke-linejoin="round" stroke-width="2" d="M12 12v2H4V12a4 4 0 1 1 8 0zM12 35v1a4 4 0 1 1-8 0V35z"/><path fill="none" stroke="#000" stroke-linecap="round" stroke-linejoin="round" stroke-width="2" d="M38,29v7a4,4,0,0,1-4,4H8a4,4,0,0,0,4-4V12A4,4,0,0,0,8,8H34a4,4,0,0,1,4,4V25"/><polyline fill="none" stroke="#000" stroke-linecap="round" stroke-linejoin="round" stroke-width="2" points="17 36 19 31 20 35 22 34 23 36 25 35 30 35"/><line x1="34" x2="16" y1="18" y2="18" fill="none" stroke="#000" stroke-linecap="round" stroke-linejoin="round" stroke-width="2"/><line x1="16" x2="34" y1="14" y2="14" fill="none" stroke="#000" stroke-linecap="round" stroke-linejoin="round" stroke-width="2"/><line x1="16" x2="27" y1="22" y2="22" fill="none" stroke="#000" stroke-linecap="round" stroke-linejoin="round" stroke-width="2"/><line x1="16" x2="27" y1="26" y2="26" fill="none" stroke="#000" stroke-linecap="round" stroke-linejoin="round" stroke-width="2"/><path fill="#26e0ff" d="M43.29,23.29a1,1,0,0,1,0,1.42l-8.17,8.17A7.24,7.24,0,0,1,30,35a7.24,7.24,0,0,1,2.12-5.12l8.17-8.17a1,1,0,0,1,1.42,0Z"/></g></svg>