<?xml version="1.0" encoding="utf-8"?>
<!-- Generator: Adobe Illustrator 24.0.0, SVG Export Plug-In . SVG Version: 6.00 Build 0)  -->
<svg version="1.1" id="Layer_1" xmlns="http://www.w3.org/2000/svg" xmlns:xlink="http://www.w3.org/1999/xlink" x="0px" y="0px"
	 viewBox="0 0 16 16" style="enable-background:new 0 0 16 16;" xml:space="preserve">
<style type="text/css">
	.st0{fill:#FFFFFF;}
</style>
<g>
	<path class="st0" d="M8,2C4.7,2,2,4.7,2,8s2.7,6,6,6s6-2.7,6-6S11.3,2,8,2z M8,13c-2.8,0-5-2.2-5-5s2.2-5,5-5s5,2.2,5,5
		S10.8,13,8,13z"/>
	<path class="st0" d="M8,6.8c-0.3,0-0.5,0.2-0.5,0.5v3.4c0,0.3,0.2,0.5,0.5,0.5c0.3,0,0.5-0.2,0.5-0.5V7.3C8.5,7.1,8.3,6.8,8,6.8z
		 M8,4.8C7.7,4.8,7.5,5,7.5,5.3v0.1c0,0.3,0.2,0.5,0.5,0.5c0,0,0,0,0,0l0,0c0.3,0,0.5-0.2,0.5-0.5V5.3C8.5,5,8.3,4.8,8,4.8
		C8,4.8,8,4.8,8,4.8z"/>
</g>
</svg>
