<svg xmlns="http://www.w3.org/2000/svg" viewBox="0 0 64 64"><g data-name="Layer 2"><path d="M14.42283 15.2a.98445.98445 0 0 0 .24219-.02979l11.17773-2.78076a.99994.99994 0 0 0-.48248-1.94041L14.1826 13.22977A1.00229 1.00229 0 0 0 14.42283 15.2zM16.27049 17.37479a1.00236 1.00236 0 0 0 1.21142.73l11.1875-2.772a1.00011 1.00011 0 0 0-.48144-1.94141l-11.1875 2.772A1.00049 1.00049 0 0 0 16.27049 17.37479zM24.61033 17.91629l-4.791 1.18213a.99987.99987 0 1 0 .4795 1.94141l4.791-1.18213A1.00007 1.00007 0 0 0 24.61033 17.91629zM40.27927 37.67948a8.00917 8.00917 0 0 0-8 8c.40221 10.59844 15.5994 10.59556 16-.0001A8.00917 8.00917 0 0 0 40.27927 37.67948zm0 14c-7.92941-.25186-7.92755-11.74933.00014-12C48.20869 39.93134 48.20683 51.4288 40.27927 51.67948z"/><path d="M58.748,51.59208c.92286-1.00635,1.82276-1.95557,2.6919-2.85987a.99916.99916,0,0,0-.08447-1.46435,32.98052,32.98052,0,0,0-9.697-5.55994,4.16875,4.16875,0,0,1,.08038-.71692l5.54535-1.33935a1.00589,1.00589,0,0,0,.12934-1.90333,42.41894,42.41894,0,0,1-8.02564-4.18713l7.89581-1.90954a1.00619,1.00619,0,0,0,.12981-1.90333A42.20049,42.20049,0,0,1,40.80857,18.0286,41.70509,41.70509,0,0,1,32.9951,4.35526a1.00279,1.00279,0,0,0-1.18848-.646L3.0366,10.8992a1.00719,1.00719,0,0,0-.7036,1.294,43.19584,43.19584,0,0,0,2.70622,6.2069c-.8693.28223-2.39606.37553-2.63836.99179a1.00051,1.00051,0,0,0-.06787.8013,43.19665,43.19665,0,0,0,2.70623,6.20691L3.0366,26.8992a1.00667,1.00667,0,0,0-.70311,1.29542A43.547,43.547,0,0,0,21.74973,51.742c-1.00732,2.42291-1.96521,4.85132-2.8479,7.22949A1.00008,1.00008,0,0,0,20.478,60.08915a30.527,30.527,0,0,1,9.55719-5.37854c.90267.41153,2.40449.2717,3.18842.67926.89743,1.00026,1.13775,3.14414,2.72711,3.61084,1.5132.56071,3.03382-1.08071,4.32853-1.32132,1.30622.24158,2.79391,1.88095,4.334,1.31934,1.58474-.465,1.82575-2.61554,2.727-3.61277.77767-.40072,2.28216-.26486,3.18281-.67541a30.5276,30.5276,0,0,1,9.55749,5.3786,1.00006,1.00006,0,0,0,1.57615-1.11769C60.75584,56.54422,59.7783,54.06473,58.748,51.59208ZM52.03861,38.86081a2.2786,2.2786,0,0,0-.95392-1.91565c.92164.5177,1.85584,1.01453,2.8147,1.46625Zm-1.4-2.16784c-.93031-.46625-2.47546-.3011-3.30367-.72388a6.46542,6.46542,0,0,1-.93162-1.68616l.37646-.091A43.97465,43.97465,0,0,0,50.63859,36.693ZM31.41013,5.86991a43.67269,43.67269,0,0,0,22.48926,24.541L45.03483,32.5557c-1.60351-1.04374-3.343.83364-4.75553,1.1239a3.94,3.94,0,0,1-1.37747-.59387c-2.79042-1.77671-4.13931-.51865-5.22253,2.2066l-5.55676,1.34076c-9.29212-3.394-19.68121-12.90442-23.52979-24.061ZM6.05442,20.20835c4.63958,8.61372,14.93409,16.13051,21.63084,18.402a1.26345,1.26345,0,0,0,.84908-.0192,21.76382,21.76382,0,0,0,.36591,3.1167,32.54522,32.54522,0,0,0-3.69837,1.61163,41.56252,41.56252,0,0,1-20.60913-22.747Zm6.73413,21.79779a41.89434,41.89434,0,0,1-8.19433-13.4336l1.46026-.36407A43.22678,43.22678,0,0,0,23.1041,44.497a22.788,22.788,0,0,0-4.11181,3.03394A41.34361,41.34361,0,0,1,12.78855,42.00614Zm11.1128,9.771a.99856.99856,0,0,0-.18165-1.05957c-.8165-.89543-1.62713-1.767-2.40087-2.57861a29.16959,29.16959,0,0,1,5.08-3.16077C25.668,46.94265,28.04227,48.108,28.86778,49.386c.153,1.02713-.60119,2.60115-.27247,3.72932a32.418,32.418,0,0,0-6.59826,3.35327C22.60691,54.91044,23.24363,53.34159,23.90135,51.77713Zm24.61962,1.312a4.83343,4.83343,0,0,0-2.35693.67968,4.81473,4.81473,0,0,0-1.37158,2.02832c-.2207.48584-.55469,1.21924-.80225,1.30127-1.0964-.14754-2.42777-1.49452-3.711-1.41885-1.2828-.07427-2.60952,1.26467-3.706,1.42091-.81561-.70193-1.12117-2.67821-2.17295-3.32769-.95-.80429-2.89359-.491-3.83054-1.0385-.21531-1.07158.66663-2.79976.20064-3.96351-.29252-1.2004-2.09678-2.09293-2.49123-3.09124.42039-1.0003,2.1553-1.8889,2.49171-3.09341.46559-1.15592-.42-2.89748-.20218-3.9594.94019-.55143,2.87856-.23352,3.82677-1.0367A4.87013,4.87013,0,0,0,35.7656,35.5618c.24984-.50568.53722-1.27317.86229-1.30959,1.13956.26251,2.34526,1.46694,3.65141,1.42722,1.27882.07406,2.61709-1.26872,3.706-1.42048.82021.69644,1.118,2.68159,2.17345,3.3272.94674.80724,2.8951.48878,3.83005,1.03853.215,1.07029-.66637,2.80067-.20065,3.96349.33566,1.21124,2.0881,2.09768,2.49125,3.09123-.39315,1.00293-2.20291,1.88671-2.49173,3.0934-.47147,1.15552.42432,2.898.20217,3.95991C49.8408,52.93778,49.01463,53.03251,48.521,53.08915Zm3.44251.02624c.3286-1.12422-.4254-2.70375-.27315-3.72741.824-1.27974,3.20088-2.44523,2.4695-4.40973a31.147,31.147,0,0,1,5.07989,3.1607c-.78027.81983-1.582,1.67627-2.40087,2.57861a.99856.99856,0,0,0-.18165,1.05957c.65772,1.56446,1.29444,3.13331,1.9043,4.69141A32.41724,32.41724,0,0,0,51.96348,53.11539Z"/></g></svg>